# xmcd
#
# Track frame offsets:
#	150
#	22790
#	32709
#	55313
#	68635
#	89973
#	118405
#	136455
#	184218
#	209227
#	215175
#	219273
#	245541
#	263102
#	305609
#	325838
#
# Disc length: 4640 seconds
#
# Revision: 1
# Processed by: cddbd v1.5.2PL0 Copyright (c) Steve Scherf et al.
# Submitted via: audiograbber 1.83.01
#
DISCID=03121e10
DTITLE=Wolf Biermann - Wolf Biermann - zu Gast beim NDR (1982 - 2006) [CD 2von2
DTITLE=)
DYEAR=1982
DGENRE=Politiklieder
TTITLE0=Kölner Konzert
TTITLE1=Chausseestraße 131
TTITLE2=Ei des Columbus
TTITLE3=Liedauswahl
TTITLE4=Politbüro
TTITLE5=Vorbilder
TTITLE6=Ikarus
TTITLE7=Ausbürgerung
TTITLE8=Väter
TTITLE9=Wiedervereinigung
TTITLE10=Neue Gedichte
TTITLE11=Heimat (Gedicht und Lied)
TTITLE12=Sehnsucht
TTITLE13=Heimkehr nach Berlin-Mitte
TTITLE14=Am Klavier
TTITLE15=Heimkehr (Lied)
EXTD=
EXTT0=
EXTT1=
EXTT2=
EXTT3=
EXTT4=
EXTT5=
EXTT6=
EXTT7=
EXTT8=
EXTT9=
EXTT10=
EXTT11=
EXTT12=
EXTT13=
EXTT14=
EXTT15=
PLAYORDER=
